<svg width="136" height="136" viewBox="0 0 136 136" fill="none" xmlns="http://www.w3.org/2000/svg">
    <g filter="url(#filter0_d_79_724)">
    <rect x="17" y="9" width="109.225" height="109.973" rx="20" fill="#00FF73" shape-rendering="crispEdges"/>
    </g>
    <path d="M77.9286 41.4969H56.4318C55.0065 41.4969 53.6395 42.0464 52.6317 43.0245C51.6238 44.0027 51.0576 45.3292 51.0576 46.7125V88.4369C51.0576 89.8201 51.6238 91.1467 52.6317 92.1248C53.6395 93.1029 55.0065 93.6524 56.4318 93.6524H88.6769C90.1023 93.6524 91.4692 93.1029 92.4771 92.1248C93.4849 91.1467 94.0511 89.8201 94.0511 88.4369V57.1436M77.9286 41.4969L94.0511 57.1436M77.9286 41.4969V57.1436H94.0511M83.3027 70.1825H61.806M83.3027 80.6135H61.806M67.1802 59.7514H61.806" stroke="#1E1E1E" stroke-width="4" stroke-linecap="round" stroke-linejoin="round"/>
    <defs>
    <filter id="filter0_d_79_724" x="0" y="0" width="135.225" height="135.973" filterUnits="userSpaceOnUse" color-interpolation-filters="sRGB">
    <feFlood flood-opacity="0" result="BackgroundImageFix"/>
    <feColorMatrix in="SourceAlpha" type="matrix" values="0 0 0 0 0 0 0 0 0 0 0 0 0 0 0 0 0 0 127 0" result="hardAlpha"/>
    <feOffset dx="-4" dy="4"/>
    <feGaussianBlur stdDeviation="6.5"/>
    <feComposite in2="hardAlpha" operator="out"/>
    <feColorMatrix type="matrix" values="0 0 0 0 0.283544 0 0 0 0 0.38481 0 0 0 0 0.516456 0 0 0 0.1 0"/>
    <feBlend mode="normal" in2="BackgroundImageFix" result="effect1_dropShadow_79_724"/>
    <feBlend mode="normal" in="SourceGraphic" in2="effect1_dropShadow_79_724" result="shape"/>
    </filter>
    </defs>
</svg>